<?xml version="1.0" standalone="no"?>
<!DOCTYPE svg PUBLIC "-//W3C//DTD SVG 20010904//EN"
 "http://www.w3.org/TR/2001/REC-SVG-20010904/DTD/svg10.dtd">
<svg version="1.0" xmlns="http://www.w3.org/2000/svg"
 width="258.000000pt" height="43.000000pt" viewBox="0 0 258.000000 43.000000"
 preserveAspectRatio="xMidYMid meet">

<g transform="translate(0.000000,43.000000) scale(0.100000,-0.100000)"
fill="#000000" stroke="none">
<path d="M1560 369 l0 -51 -32 8 c-73 18 -137 -5 -164 -58 -51 -98 20 -206
126 -193 25 3 64 5 88 5 l42 -1 0 171 0 170 -30 0 c-29 0 -30 -1 -30 -51z
m-46 -100 c36 -17 54 -65 35 -98 -30 -54 -110 -54 -133 1 -17 39 -11 63 22 88
28 23 41 24 76 9z"/>
<path d="M1650 390 c0 -28 3 -30 35 -30 32 0 35 2 35 30 0 28 -3 30 -35 30
-32 0 -35 -2 -35 -30z"/>
<path d="M1960 369 l0 -51 -32 8 c-103 25 -181 -31 -180 -129 1 -76 65 -132
142 -122 25 3 64 5 88 5 l42 -1 0 171 0 170 -30 0 c-29 0 -30 -1 -30 -51z
m-47 -100 c25 -11 47 -47 47 -75 0 -26 -47 -64 -80 -64 -67 0 -97 88 -44 129
30 24 43 26 77 10z"/>
<path d="M1135 325 c-22 -8 -41 -15 -42 -15 -1 0 -11 -15 -22 -34 -24 -38 -27
-98 -8 -136 7 -13 28 -35 47 -48 29 -19 43 -22 80 -18 25 4 64 6 88 6 l42 -1
0 125 0 126 -52 -2 c-29 -1 -62 1 -73 4 -11 4 -38 1 -60 -7z m78 -56 c25 -11
47 -47 47 -75 0 -25 -47 -64 -76 -64 -68 0 -100 88 -48 129 30 24 43 26 77 10z"/>
<path d="M2137 325 c-51 -18 -75 -41 -88 -85 -15 -48 0 -96 42 -136 26 -25 37
-29 82 -28 29 1 73 2 100 3 l47 1 0 125 0 125 -52 -2 c-29 -1 -62 1 -73 5 -11
3 -37 0 -58 -8z m87 -66 c19 -15 26 -30 26 -55 0 -90 -125 -101 -146 -12 -5
22 0 33 24 58 36 35 60 38 96 9z"/>
<path d="M2420 330 c-102 -24 -87 -138 21 -154 55 -8 74 -19 66 -40 -10 -24
-74 -21 -89 4 -16 25 -68 28 -68 4 0 -28 19 -52 51 -63 102 -36 201 23 169
100 -12 28 -35 40 -105 55 -45 10 -59 38 -26 49 28 8 61 -3 61 -21 0 -9 11
-14 35 -14 31 0 34 2 26 22 -17 46 -79 72 -141 58z"/>
<path d="M10 305 l0 -25 475 0 475 0 0 25 0 25 -475 0 -475 0 0 -25z"/>
<path d="M1650 205 l0 -125 35 0 35 0 0 125 0 125 -35 0 -35 0 0 -125z"/>
<path d="M12 203 l3 -28 473 -3 472 -2 0 30 0 30 -476 0 -475 0 3 -27z"/>
<path d="M10 95 l0 -25 475 0 475 0 0 25 0 25 -475 0 -475 0 0 -25z"/>
</g>
</svg>
